<svg xmlns="http://www.w3.org/2000/svg" xmlns:xlink="http://www.w3.org/1999/xlink" width="215" height="100" viewBox="-75 -34.5 2150 1000">
  <defs>
    <style>
      .cls-1 {
        fill: #9841ff;
        fill-rule: evenodd;
      }
    </style>
    <clipPath id="clip-path">
      <rect width="2000" height="931"/>
    </clipPath>
  </defs>
  <g clip-path="url(#clip-path)">
    <path class="cls-1" d="M1052,59c14.98-.085,19.58,8.745,28,15,14.2,10.55,27.07,22.646,41,33,8.14,6.053,15.09,8.373,15,23-7.03,9.6-12.01,25.762-9,39,17.15,9.825,67.51,0,95,0,65.45,0,126.5,6.446,189,11a17.885,17.885,0,0,0,3,4v1h-1c-3.51,9.508-16.04,13.707-24,19-18.58,12.349-37.43,25.693-56,38-6.23,4.129-28.39,13.182-24,26,4.18,12.2,31.76,12.463,44,17,44.83,16.614,90.77,30.085,134,48,11.27,4.672,44.26,10.075,45,23-31.98,19.1-75.47,32.3-111,47-22.85,9.451-44.75,16.3-61,32v7c8.61,5.4,16.64,6.35,26,11,14.36,7.132,28.03,16.864,41,26,27.14,19.112,49.71,43.174,76,63,5.05,3.806,8.96,10.188,14,14,12.65,9.565,23.32,20.605,35,31,4.85,4.314,10.55,6.2,12,14,0.71,1.545.13,0.135,0,3l-3,1c-7.13,4.652-37.21,2-49,2-42.59,0-86.97.984-128,1-20.21.008-51.69-3.378-60,9-2.66,3.364-2.47,10.886-1,16,3.96,13.749,6.99,29.409,12,44,6.3,18.347,8.98,42.266,14,62q1.995,16.5,4,33c4.24,16.47,4.49,34.955,9,53,2.85,11.387,5.67,23.823,5,36-2.09,1.121-1.83,1.434-5,2-48.07-38.288-87.72-85.2-137-122-5.64-4.211-10.35-10.807-16-15-26.8-19.88-57-36.635-88-52-20.92-10.369-47.84-19.278-72-25-13.87-3.283-32.04,5.589-35,14-1.66,2.069-1.91,4.155-2,8,8.05,10.19,15.03,19.875,24,29-0.63,1.754-.19.971-1,2-1.29,2.467.43,0.681-2,2-6,3.656-21.29.261-27-1-16.594-3.665-50.627-4.023-62,3-12.485,7.71-22.491,19.372-34,28-26.057,19.534-51.11,42.113-74,65l-14,15c-2.438,1.844-5.2,2.632-7,5-6.454,8.5-16.571,22.085-27,26-10.294,3.864-22.663-2.781-31-5-9.3-2.475-16.917-1.467-26-4-14.066-3.923-30.135-7.754-43-12-8.584-2.833-16.521-3.307-23-8-14.273-10.339-17.719-33.473-33-43-18.852-11.754-55.518-1.8-78-10-19.183-7-35.476-20.851-52-31-22.624-13.895-49.285-24.14-68-42v-7c4.381-4.654,7.17-10.828,11-16,9.076-12.257,19.7-23.443,29-36,14.8-19.975,33.987-37.111,51-55,6.039-6.35,11-14.709,18-20,23.493-17.77,41.588-42.348,65-60,9.563-7.21,17.645-16.012,27-23,6.857-5.122,15.053-10.1,20-17,6.214-8.662,7.693-20.535,12-31a422.356,422.356,0,0,1,21-44c10.321-18.659,23.416-36.246,36-53,8.044-10.711,21.852-16.223,25-32,2.283-11.443-13.15-37.022-17-46-16.551-38.6-30.315-76.374-47-115-5.581-12.919-18.123-28.967-15-46h2c3.861-2.786,13.072-1.669,19,0,14.982,4.219,35,5.785,50,10l33,5c30.3,8.563,60.967,16.048,87,29a396.592,396.592,0,0,1,43,25c9.245,6.153,14.855,14.547,30,15,2.686-2.179,6.226-2.9,9-5,7.816-5.916,19.509-25.354,26-34,7.148-9.521,21.335-21.7,31-29,10.63-8.029,18.35-20.956,29-29C1036.55,70.3,1044.66,65.176,1052,59Zm-1,77c-3.08,2.972-7.54,4.406-11,7-5.76,4.316-9.99,10.462-16,15-13.52,10.21-23.91,27.245-34,41-6.566,8.949-15.429,17.054-22,26-6.93,9.435-17.675,33.787-31,35-29.807-23.7-54.593-51.578-88-72-6.97-4.261-14.1-5.594-22-9-16.5-7.119-37.719-19.44-60-14-6.419,13.208,1.494,24.624,6,35,11.376,26.195,19.674,51.71,31,78,3.943,9.151,16.263,25.652,12,38-2.984,8.642-14.849,15.848-21,22-15.154,15.156-31.422,31.5-44,49-11.981,16.671-23.65,37.8-32,57-6.271,14.417-8.364,32.622-17,45-8.554,12.26-23.067,23-35,32-7.094,5.352-12.908,13.645-20,19-18.667,14.1-35.475,30.7-52,47-20.329,20.056-39.887,40.731-60,61-5.389,5.43-18.281,15.947-13,28,3.275,7.475,13.2,10.778,20,15,10.246,6.363,20.006,14.357,33,18l65,8,19,1c17.946,5.174,24.108,27.407,34,41,12.114,16.647,39.918,20.4,64,25,10.457,2,17.863-5.256,23-9,18.408-13.417,32.082-32.434,50-46,29.426-22.279,55.471-50.316,85-72,16.171-11.875,33.2-21.834,50-33,13.373-8.889,27.6-16.278,42-25,6.56-3.971,13.89-9.826,22-12,13.14-3.523,48.47,13.089,58,17,17.52,7.194,34.83,10.567,52,18,28.83,12.478,55.32,28.8,81,45,14.04,8.856,37.38,33.762,56,34a25.076,25.076,0,0,1,4-5c0.63-28.068-12.33-50.414-21-70-3.05-6.878-4.19-13.725-8-20-6.31-10.4-18.79-22.514-16-38,12.28-5.831,23.26-4.369,39-8,26.12-6.026,58.08-8,89-8,13.35,0,45.83,1.207,43-13-1.95-9.779-18.49-16-26-21-11.15-7.41-22.36-15.917-34-23-13.53-8.235-35.24-15.6-50-22-11.8-5.119-44.13-8.868-45-23,4.02-3.844,6.54-9.625,11-13,19.89-15.067,38.56-32.621,59-47,15.62-10.985,32.49-16.741,46-30-0.9-20.379-30.37-20.006-47-25-26.08-7.834-54.78-9.677-84-16h-24c-21.92,0-46.1,1.084-64-3a15.649,15.649,0,0,1-1-5c20.37-19.187,41.87-38.707,65-55,8.88-6.252,21.84-10.036,19-25-7.37-4.321-25.99-8.167-40-5-8.69,1.964-19.32-.191-29,2-21.87,4.953-45.27,5.089-66,12-6.38,2.127-36.52,13.676-42,10-5-3.352-4.07-27.222-2-36,3.26-13.838,4.09-27.537,8-42,3.06-11.344,8.07-20.158,5-33a9.281,9.281,0,0,1-4-3h-10Z"/>
  </g>
</svg>
